<svg xmlns="http://www.w3.org/2000/svg" width="1200" height="630" viewBox="0 0 1200 630" role="img" aria-labelledby="title desc">
  <title id="title">Configuring Elsa with shell features</title>
  <desc id="desc">A modular workflow host shown as a central orchestration board surrounded by interchangeable modules and configuration cards on a dark work surface.</desc>
  <defs>
    <linearGradient id="surface" x1="0" y1="0" x2="1" y2="1">
      <stop offset="0%" stop-color="#5b5a57"/>
      <stop offset="22%" stop-color="#3c3d3e"/>
      <stop offset="100%" stop-color="#1c1f23"/>
    </linearGradient>
    <linearGradient id="board" x1="0" y1="0" x2="1" y2="1">
      <stop offset="0%" stop-color="#2f3439"/>
      <stop offset="100%" stop-color="#21262b"/>
    </linearGradient>
    <linearGradient id="card" x1="0" y1="0" x2="1" y2="1">
      <stop offset="0%" stop-color="#f6efe5"/>
      <stop offset="100%" stop-color="#dfd3c3"/>
    </linearGradient>
    <filter id="shadow" x="-20%" y="-20%" width="160%" height="160%">
      <feDropShadow dx="0" dy="14" stdDeviation="18" flood-color="#0b0c0d" flood-opacity="0.35"/>
    </filter>
  </defs>

  <rect width="1200" height="630" fill="url(#surface)"/>
  <ellipse cx="990" cy="102" rx="126" ry="54" fill="#0f1214" opacity="0.36"/>
  <ellipse cx="1134" cy="126" rx="74" ry="112" fill="#0c0f12" opacity="0.34"/>
  <ellipse cx="1044" cy="558" rx="142" ry="66" fill="#13171a" opacity="0.3"/>

  <g opacity="0.4" stroke="#9ea3a6" stroke-width="2.2" stroke-linecap="round" stroke-dasharray="7 9">
    <path d="M544 236L438 222"/>
    <path d="M532 306L424 306"/>
    <path d="M560 392L428 422"/>
    <path d="M826 226L930 190"/>
    <path d="M836 308L962 306"/>
    <path d="M814 388L930 430"/>
    <path d="M698 182L716 122"/>
    <path d="M700 448L720 520"/>
  </g>

  <g filter="url(#shadow)">
    <rect x="540" y="150" width="304" height="286" rx="28" fill="url(#board)" stroke="#5a6066" stroke-width="2"/>
  </g>

  <g stroke="#b8baba" stroke-width="6" stroke-linecap="round" stroke-linejoin="round" fill="none">
    <path d="M652 240L700 240L730 210"/>
    <path d="M652 302L726 302L774 268"/>
    <path d="M652 302L610 336L588 378"/>
    <path d="M716 334L716 382L766 406"/>
    <path d="M776 302L822 302L822 244"/>
    <path d="M744 254L744 214L706 192"/>
  </g>

  <g>
    <polygon points="690,274 738,290 738,340 690,356 642,340 642,290" fill="#607586"/>
    <rect x="602" y="225" width="44" height="44" rx="9" fill="#7b708f"/>
    <rect x="760" y="247" width="36" height="36" rx="8" fill="#718698"/>
    <rect x="683" y="386" width="42" height="42" rx="8" fill="#7b708f"/>
    <rect x="785" y="386" width="30" height="30" rx="7" fill="#9a835f"/>
    <rect x="718" y="184" width="30" height="30" rx="7" fill="#7b708f"/>
    <circle cx="585" cy="379" r="18" fill="#7e866f"/>
    <circle cx="610" cy="424" r="14" fill="#585e64"/>
    <circle cx="823" cy="241" r="16" fill="#85826f"/>
    <circle cx="768" cy="406" r="15" fill="#595d62"/>
    <circle cx="706" cy="192" r="14" fill="#8d8b7e"/>
  </g>

  <g filter="url(#shadow)">
    <rect x="474" y="186" width="124" height="74" rx="15" fill="url(#card)"/>
    <rect x="448" y="286" width="126" height="78" rx="15" fill="url(#card)"/>
    <rect x="420" y="404" width="134" height="78" rx="16" fill="url(#card)"/>
    <rect x="918" y="120" width="118" height="64" rx="14" fill="#646f55"/>
    <rect x="1038" y="140" width="136" height="74" rx="15" fill="#33495a"/>
    <rect x="1000" y="258" width="132" height="44" rx="10" fill="#584d68"/>
    <rect x="1000" y="308" width="132" height="44" rx="10" fill="#223744"/>
    <rect x="1000" y="358" width="132" height="44" rx="10" fill="#6e5433"/>
    <rect x="1062" y="422" width="108" height="76" rx="16" fill="#2f3337"/>
    <rect x="868" y="484" width="124" height="82" rx="16" fill="#2b4350"/>
    <rect x="680" y="506" width="130" height="84" rx="16" fill="#675969"/>
  </g>

  <g opacity="0.88">
    <circle cx="510" cy="216" r="14" fill="#8f9184"/>
    <rect x="540" y="204" width="28" height="4" rx="2" fill="#a5a299"/>
    <rect x="540" y="216" width="32" height="4" rx="2" fill="#b4afa5"/>
    <rect x="485" y="244" width="12" height="4" rx="2" fill="#b9b2a7"/>
    <rect x="503" y="244" width="12" height="4" rx="2" fill="#b9b2a7"/>
    <rect x="521" y="244" width="12" height="4" rx="2" fill="#b9b2a7"/>
    <rect x="539" y="244" width="12" height="4" rx="2" fill="#b9b2a7"/>

    <circle cx="485" cy="322" r="14" fill="#9f9a91"/>
    <rect x="514" y="308" width="30" height="4" rx="2" fill="#aaa49a"/>
    <rect x="514" y="320" width="34" height="4" rx="2" fill="#b9b3aa"/>
    <rect x="468" y="348" width="12" height="4" rx="2" fill="#bdb5a9"/>
    <rect x="486" y="348" width="12" height="4" rx="2" fill="#bdb5a9"/>
    <rect x="504" y="348" width="12" height="4" rx="2" fill="#bdb5a9"/>
    <rect x="522" y="348" width="12" height="4" rx="2" fill="#bdb5a9"/>

    <polygon points="472,430 490,420 508,430 508,450 490,460 472,450" fill="#84788f"/>
    <rect x="520" y="426" width="24" height="4" rx="2" fill="#a79f95"/>
    <rect x="520" y="438" width="30" height="4" rx="2" fill="#b4ada3"/>
    <rect x="446" y="468" width="10" height="4" rx="2" fill="#c0b7a9"/>
    <rect x="462" y="468" width="10" height="4" rx="2" fill="#c0b7a9"/>
    <rect x="478" y="468" width="10" height="4" rx="2" fill="#c0b7a9"/>
    <rect x="494" y="468" width="10" height="4" rx="2" fill="#c0b7a9"/>

    <rect x="1090" y="156" width="20" height="20" fill="#5a736f"/>
    <rect x="1120" y="156" width="22" height="4" rx="2" fill="#b7afa5"/>
    <rect x="1120" y="168" width="28" height="4" rx="2" fill="#b7afa5"/>

    <rect x="944" y="444" width="28" height="28" fill="#5f756e"/>
    <rect x="984" y="446" width="30" height="4" rx="2" fill="#b2aca1"/>
    <rect x="984" y="458" width="34" height="4" rx="2" fill="#b9b3aa"/>
  </g>

  <g fill="#0d1012" opacity="0.78">
    <circle cx="949" cy="174" r="4"/>
    <circle cx="969" cy="174" r="4"/>
    <circle cx="989" cy="174" r="4"/>
    <rect x="948" y="448" width="34" height="4" rx="2"/>
    <rect x="948" y="458" width="34" height="4" rx="2"/>
    <rect x="948" y="468" width="34" height="4" rx="2"/>
    <rect x="1090" y="444" width="4" height="28" rx="2"/>
    <rect x="1100" y="444" width="4" height="28" rx="2"/>
    <rect x="1110" y="444" width="4" height="28" rx="2"/>
    <circle cx="1092" cy="486" r="4"/>
    <circle cx="1112" cy="486" r="4"/>
    <circle cx="1132" cy="486" r="4"/>
    <circle cx="907" cy="548" r="4"/>
    <circle cx="927" cy="548" r="4"/>
    <circle cx="947" cy="548" r="4"/>
    <circle cx="729" cy="574" r="4"/>
    <circle cx="749" cy="574" r="4"/>
    <circle cx="769" cy="574" r="4"/>
  </g>

  <g>
    <rect x="1078" y="506" width="106" height="94" rx="12" fill="#202327"/>
    <g stroke="#4f555b" stroke-width="2">
      <line x1="1096" y1="522" x2="1096" y2="586"/>
      <line x1="1114" y1="522" x2="1114" y2="586"/>
      <line x1="1132" y1="522" x2="1132" y2="586"/>
      <line x1="1150" y1="522" x2="1150" y2="586"/>
    </g>
    <rect x="1160" y="548" width="8" height="42" rx="4" fill="#737980"/>
  </g>
</svg>
