<svg xmlns="http://www.w3.org/2000/svg" width="1600" height="900" viewBox="0 0 1600 900" role="img" aria-labelledby="title desc">
  <title id="title">Workflow diagnostics and operations workbench</title>
  <desc id="desc">A restrained technical illustration of workflow nodes, diagnostic panels, a key module, and a controlled runtime change path.</desc>
  <defs>
    <linearGradient id="bg" x1="0" x2="1" y1="0" y2="1">
      <stop offset="0" stop-color="#f4f7fb"/>
      <stop offset="0.55" stop-color="#eef3f6"/>
      <stop offset="1" stop-color="#e9eef1"/>
    </linearGradient>
    <linearGradient id="panel" x1="0" x2="1" y1="0" y2="1">
      <stop offset="0" stop-color="#ffffff"/>
      <stop offset="1" stop-color="#eef4f5"/>
    </linearGradient>
    <filter id="shadow" x="-20%" y="-20%" width="140%" height="140%">
      <feDropShadow dx="0" dy="18" stdDeviation="24" flood-color="#52606d" flood-opacity="0.16"/>
    </filter>
    <filter id="soft" x="-20%" y="-20%" width="140%" height="140%">
      <feDropShadow dx="0" dy="8" stdDeviation="12" flood-color="#52606d" flood-opacity="0.12"/>
    </filter>
  </defs>

  <rect width="1600" height="900" fill="url(#bg)"/>
  <path d="M0 708 C220 650 355 717 544 663 C738 608 820 522 1030 563 C1216 599 1367 699 1600 632 L1600 900 L0 900 Z" fill="#dfe8e9" opacity="0.75"/>

  <g transform="translate(150 112)" filter="url(#shadow)">
    <rect x="0" y="0" width="1300" height="672" rx="28" fill="#fbfdff"/>
    <rect x="30" y="36" width="448" height="600" rx="22" fill="#f5f8fa" stroke="#d8e1e5"/>
    <rect x="512" y="36" width="758" height="600" rx="22" fill="#f7fafb" stroke="#d8e1e5"/>
  </g>

  <g transform="translate(222 192)">
    <path d="M110 130 C185 72 279 76 344 146 C414 222 330 310 410 378 C460 420 544 405 602 358" fill="none" stroke="#8aa4a6" stroke-width="14" stroke-linecap="round"/>
    <path d="M412 378 C485 432 548 498 640 452" fill="none" stroke="#bf865f" stroke-width="10" stroke-linecap="round" opacity="0.75"/>
    <g filter="url(#soft)">
      <circle cx="110" cy="130" r="50" fill="#ffffff" stroke="#63898b" stroke-width="8"/>
      <circle cx="344" cy="146" r="50" fill="#ffffff" stroke="#64748b" stroke-width="8"/>
      <circle cx="410" cy="378" r="50" fill="#ffffff" stroke="#b77a55" stroke-width="8"/>
      <circle cx="602" cy="358" r="50" fill="#ffffff" stroke="#5d8679" stroke-width="8"/>
      <circle cx="640" cy="452" r="42" fill="#ffffff" stroke="#9e6f57" stroke-width="7"/>
    </g>
    <rect x="84" y="104" width="52" height="52" rx="14" fill="#d9ebe7"/>
    <path d="M327 132 h34 M344 115 v34" stroke="#64748b" stroke-width="8" stroke-linecap="round"/>
    <path d="M392 378 h36" stroke="#b77a55" stroke-width="8" stroke-linecap="round"/>
    <path d="M584 339 l36 36 M620 339 l-36 36" stroke="#5d8679" stroke-width="8" stroke-linecap="round"/>
    <path d="M626 452 h28" stroke="#9e6f57" stroke-width="7" stroke-linecap="round"/>
  </g>

  <g transform="translate(754 182)">
    <g filter="url(#soft)">
      <rect x="0" y="0" width="220" height="150" rx="18" fill="url(#panel)" stroke="#d4dde2"/>
      <rect x="256" y="0" width="220" height="150" rx="18" fill="url(#panel)" stroke="#d4dde2"/>
      <rect x="512" y="0" width="220" height="150" rx="18" fill="url(#panel)" stroke="#d4dde2"/>
    </g>
    <g fill="none" stroke-linecap="round">
      <path d="M34 42 h86 M34 74 h138 M34 106 h112" stroke="#64748b" stroke-width="12"/>
      <path d="M290 112 C326 70 352 92 382 54 C410 20 436 50 448 34" stroke="#528b7d" stroke-width="12"/>
      <path d="M552 108 h142 M552 78 h90 M552 48 h120" stroke="#b77a55" stroke-width="12"/>
    </g>
  </g>

  <g transform="translate(782 398)" filter="url(#soft)">
    <rect x="0" y="0" width="318" height="176" rx="22" fill="#ffffff" stroke="#d4dde2"/>
    <circle cx="72" cy="88" r="34" fill="#e7efe9" stroke="#5d8679" stroke-width="8"/>
    <rect x="102" y="78" width="98" height="20" rx="10" fill="#5d8679"/>
    <rect x="186" y="88" width="24" height="42" rx="8" fill="#5d8679"/>
    <rect x="222" y="88" width="24" height="32" rx="8" fill="#5d8679"/>
  </g>

  <g transform="translate(1148 398)" filter="url(#soft)">
    <rect x="0" y="0" width="250" height="176" rx="22" fill="#ffffff" stroke="#d4dde2"/>
    <path d="M42 122 C92 44 148 132 206 56" fill="none" stroke="#9e6f57" stroke-width="14" stroke-linecap="round"/>
    <circle cx="42" cy="122" r="16" fill="#f1ded2"/>
    <circle cx="206" cy="56" r="16" fill="#dbeae6"/>
    <path d="M122 98 l26 26 l50 -64" fill="none" stroke="#5d8679" stroke-width="12" stroke-linecap="round" stroke-linejoin="round"/>
  </g>

  <g transform="translate(244 676)" opacity="0.8">
    <rect x="0" y="0" width="1112" height="16" rx="8" fill="#cbd8dc"/>
    <rect x="0" y="0" width="268" height="16" rx="8" fill="#63898b"/>
    <rect x="308" y="0" width="218" height="16" rx="8" fill="#b77a55"/>
    <rect x="564" y="0" width="168" height="16" rx="8" fill="#64748b"/>
  </g>
</svg>
